<svg height="32" viewBox="0 0 32 32" width="32" xmlns="http://www.w3.org/2000/svg" style="transform: scaleX(-1);">
  <path d="m17 17h5.1421a4 4 0 1 0 0-2h-5.1421v-8h5.1421a4 4 0 1 0 0-2h-5.1421a2.0023 2.0023 0 0 0 -2 2v8h-5.1421a4 4 0 1 0 0 2h5.1421v8a2.0023 2.0023 0 0 0 2 2h5.1421a4 4 0 1 0 0-2h-5.1421zm9-3a2 2 0 1 1 -2 2 2.0023 2.0023 0 0 1 2-2zm0-10a2 2 0 1 1 -2 2 2.0023 2.0023 0 0 1 2-2zm-20 14a2 2 0 1 1 2-2 2.0023 2.0023 0 0 1 -2 2zm20 6a2 2 0 1 1 -2 2 2.0023 2.0023 0 0 1 2-2z"/>
  <path d="m0 0h32v32h-32z" fill="none" transform="matrix(-1 0 0 -1 32 32)"/>
</svg>